<?xml version="1.0" encoding="UTF-8"?>
<svg id="Layer_1" data-name="Layer 1" xmlns="http://www.w3.org/2000/svg" viewBox="0 0 188.86 191.65">
  <path d="m113.2,71.63c.04.37.11.75.11,1.12,0,7.51,0,15.03.01,22.54,0,1.88,1.01,2.86,2.91,2.87,1.31.01,2.63,0,3.94,0,6.92-.01,13.83,0,20.75-.04,3.21-.01,6.39-.29,9.34-1.74,3.1-1.51,4.99-4.03,5.45-7.39.43-3.15.58-6.35.64-9.53.06-3.62.27-7.26-.64-10.86-.78-3.04-2.4-5.58-5.16-6.82-2.29-1.03-4.97-1.56-7.5-1.63-7.27-.22-14.55-.1-21.82-.13-.46,0-.92-.11-1.66-.2,10.94-18.98,21.77-37.76,32.6-56.54.13.05.26.1.39.16-.32.83-.62,1.66-.97,2.48-1.45,3.36-2.91,6.72-4.37,10.07-1.45,3.32-2.92,6.62-4.36,9.94-1.03,2.37-2.03,4.76-3.03,7.15-.33.79.14,1,.82,1,1.4,0,2.8-.04,4.19.03,3.59.2,7.21.22,10.75.74,7.52,1.12,14.39,3.87,20.03,9.17,3.02,2.84,5.36,6.15,7.11,9.94,2.9,6.26,3.88,12.85,3.84,19.66-.03,4.48.12,8.96-.13,13.43-.41,7.21-2.97,13.51-8.7,18.23-2.58,2.12-5.41,3.81-8.62,4.81-.21.06-.39.22-.91.54.79.34,1.31.65,1.88.78,5.43,1.26,10,3.92,13.58,8.22,2.27,2.73,3.76,5.87,4.29,9.34.49,3.18.74,6.42.8,9.64.11,5.83.15,11.68-.07,17.51-.28,7.33-2.16,14.28-6.3,20.41-3.84,5.68-9.13,9.64-15.55,12.06-5.98,2.26-12.19,3.05-18.56,3.04-19.99-.03-39.97.02-59.96,0-1.24,0-2.53-.25-3.72-.62-1.32-.41-2.02-1.5-2.13-2.9-.08-.99-.13-1.99-.13-2.99,0-19.87,0-39.73-.04-59.6,0-1.35.62-2.36,1.23-3.42,4.05-7.05,8.11-14.1,12.18-21.14,5.58-9.63,11.17-19.25,16.76-28.87.11-.19.26-.36.4-.54.11.02.22.04.33.06Zm.12,72.92c0,6.11,0,12.22,0,18.34,0,1.84.84,2.73,2.68,2.81,1.28.05,2.56.03,3.83.03,8.35,0,16.7.07,25.04-.09,2.43-.05,4.97-.48,7.25-1.3,4.45-1.59,6.27-5.43,6.46-9.77.29-6.78.27-13.58,0-20.36-.15-3.68-1.65-6.96-5.18-8.92-2.64-1.46-5.53-1.95-8.42-1.99-9.63-.13-19.25-.07-28.88-.06-1.85,0-2.79,1.02-2.79,2.86,0,6.15,0,12.3,0,18.45Z"/>
  <path d="m73.36,128.31c-11.76,20.37-23.36,40.46-34.95,60.55-.11-.05-.21-.11-.32-.16.47-1.17.91-2.36,1.41-3.52,1.46-3.35,2.98-6.68,4.43-10.03,2.28-5.26,4.53-10.53,6.81-15.79.63-1.46.49-1.66-1.16-1.72-5.75-.19-11.53-.05-17.24-.66-10.51-1.12-19.45-5.43-25.72-14.31-2.43-3.45-3.98-7.3-5.08-11.39C.23,126.37,0,121.38,0,116.34c.03-26.02.03-52.04,0-78.07,0-4.39.55-8.72,1.78-12.89C4.51,16.09,9.95,8.92,18.82,4.55,25.04,1.49,31.67.24,38.48.13c10.43-.17,20.87-.19,31.3.02,4.08.09,8.24.62,12.19,1.62,7.31,1.85,13.69,5.49,18.42,11.55,2.85,3.65,4.77,7.77,6.06,12.24,1.78,6.17,1.77,12.47,1.79,18.78.03,7.2-.07,14.39.05,21.58.04,2.29-1.15,3.93-2.17,5.71-2.68,4.67-5.4,9.31-8.1,13.96-2.56,4.41-5.13,8.82-7.67,13.24-3.08,5.36-6.14,10.72-9.21,16.09-1.13,1.97-2.23,3.95-3.38,5.91-.17.29-.54.47-.72.63.05-3.77.13-7.47.13-11.17,0-23.22-.02-46.45,0-69.67,0-3.21-.52-6.28-2.23-9.05-1.24-2.02-3.21-3.18-5.38-3.71-2.23-.53-4.57-.78-6.86-.81-6.51-.1-13.03-.05-19.55,0-2.38.02-4.68.57-6.79,1.67-2.66,1.39-4.21,3.73-4.65,6.62-.44,2.91-.73,5.87-.74,8.81-.06,23.9-.03,47.81-.04,71.71,0,2.9.33,5.73,1.36,8.46,1.25,3.31,3.75,5.16,7.07,5.77,2.57.47,5.23.64,7.85.69,5.31.1,10.63.07,15.95.01,3.26-.04,6.45-.47,9.29-2.27.15-.09.36-.09.9-.21Z"/>
</svg>